<svg width="706" height="246" viewBox="0 0 706 246" fill="none" xmlns="http://www.w3.org/2000/svg">
<path d="M105.625 149.125C105.625 153.708 105.042 158.083 103.875 162.25H35.75C40.5 169.333 47.125 172.875 55.625 172.875C62.2917 172.875 68.0417 170.333 72.875 165.25L91.625 184C81.375 194.083 69.375 199.125 55.625 199.125C41.7917 199.125 30 194.25 20.25 184.5C10.5 174.75 5.625 162.958 5.625 149.125C5.625 135.292 10.5 123.5 20.25 113.75C30 104 41.7917 99.125 55.625 99.125C69.4583 99.125 81.25 104 91 113.75C100.75 123.5 105.625 135.292 105.625 149.125ZM75.375 136C70.7917 128.917 64.2083 125.375 55.625 125.375C47.125 125.375 40.5 128.917 35.75 136H75.375ZM192 196.625H161.375L147.25 173.75L133.25 196.625H102.625L132 149.125L102.625 101.625H133.375L147.25 124.25L161.25 101.625H192L162.625 149L192 196.625ZM302.656 149.125C302.656 163.125 298.156 174.958 289.156 184.625C280.156 194.292 268.823 199.125 255.156 199.125C242.906 199.125 234.156 196.125 228.906 190.125V234.125H202.656V101.625H228.906V108.25C234.323 102.167 243.073 99.125 255.156 99.125C268.49 99.125 279.74 104 288.906 113.75C298.073 123.417 302.656 135.208 302.656 149.125ZM276.406 149.125C276.406 142.542 274.073 136.958 269.406 132.375C264.823 127.708 259.24 125.375 252.656 125.375C246.073 125.375 240.448 127.708 235.781 132.375C231.198 136.958 228.906 142.542 228.906 149.125C228.906 155.708 231.198 161.333 235.781 166C240.448 170.583 246.073 172.875 252.656 172.875C259.24 172.875 264.823 170.583 269.406 166C274.073 161.333 276.406 155.708 276.406 149.125ZM413.828 149.125C413.828 153.708 413.245 158.083 412.078 162.25H343.953C348.703 169.333 355.328 172.875 363.828 172.875C370.495 172.875 376.245 170.333 381.078 165.25L399.828 184C389.578 194.083 377.578 199.125 363.828 199.125C349.995 199.125 338.203 194.25 328.453 184.5C318.703 174.75 313.828 162.958 313.828 149.125C313.828 135.292 318.703 123.5 328.453 113.75C338.203 104 349.995 99.125 363.828 99.125C377.661 99.125 389.453 104 399.203 113.75C408.953 123.5 413.828 135.292 413.828 149.125ZM383.578 136C378.995 128.917 372.411 125.375 363.828 125.375C355.328 125.375 348.703 128.917 343.953 136H383.578ZM513.281 196.625H487.031V141.875C487.031 137.292 485.406 133.417 482.156 130.25C478.906 127 474.99 125.375 470.406 125.375C465.823 125.375 461.906 127 458.656 130.25C455.49 133.417 453.906 137.292 453.906 141.875V196.625H427.656V101.625H453.906V106.625C459.323 101.625 466.073 99.125 474.156 99.125C485.24 99.125 494.531 103.292 502.031 111.625C509.531 119.875 513.281 129.958 513.281 141.875V196.625ZM606.859 167.25C606.859 176.167 603.901 183.5 597.984 189.25C591.151 195.833 581.484 199.125 568.984 199.125C555.818 199.125 545.568 195.458 538.234 188.125C531.651 181.625 528.359 173.542 528.359 163.875H554.609C554.609 169.875 559.401 172.875 568.984 172.875C576.734 172.875 580.609 171 580.609 167.25C580.609 165.417 579.234 163.958 576.484 162.875C574.401 162.042 570.984 161.083 566.234 160C543.068 154.583 531.484 144.375 531.484 129.375C531.484 121.125 534.943 114.042 541.859 108.125C548.776 102.125 557.359 99.125 567.609 99.125C577.776 99.125 586.318 102 593.234 107.75C600.234 113.75 603.734 121.375 603.734 130.625H577.484C577.484 128.792 576.901 127.542 575.734 126.875C574.068 125.875 571.359 125.375 567.609 125.375C561.026 125.375 557.734 126.708 557.734 129.375C557.734 131.542 562.693 133.458 572.609 135.125C583.859 137.042 592.359 140.792 598.109 146.375C603.943 151.875 606.859 158.833 606.859 167.25ZM699.047 167.25C699.047 176.167 696.089 183.5 690.172 189.25C683.339 195.833 673.672 199.125 661.172 199.125C648.005 199.125 637.755 195.458 630.422 188.125C623.839 181.625 620.547 173.542 620.547 163.875H646.797C646.797 169.875 651.589 172.875 661.172 172.875C668.922 172.875 672.797 171 672.797 167.25C672.797 165.417 671.422 163.958 668.672 162.875C666.589 162.042 663.172 161.083 658.422 160C635.255 154.583 623.672 144.375 623.672 129.375C623.672 121.125 627.13 114.042 634.047 108.125C640.964 102.125 649.547 99.125 659.797 99.125C669.964 99.125 678.505 102 685.422 107.75C692.422 113.75 695.922 121.375 695.922 130.625H669.672C669.672 128.792 669.089 127.542 667.922 126.875C666.255 125.875 663.547 125.375 659.797 125.375C653.214 125.375 649.922 126.708 649.922 129.375C649.922 131.542 654.88 133.458 664.797 135.125C676.047 137.042 684.547 140.792 690.297 146.375C696.13 151.875 699.047 158.833 699.047 167.25Z" fill="#79D3D3"/>
</svg>
